<mxfile host="app.diagrams.net" modified="2021-10-26T16:04:54.040Z" agent="5.0 (Windows NT 10.0; Win64; x64) AppleWebKit/537.36 (KHTML, like Gecko) Chrome/94.0.4606.81 Safari/537.36" etag="jWOLbP3-tLaD5lP2XJEz" version="15.5.2" type="github">
  <diagram id="JeM2oguLR3vM5HerTo6W" name="Integration vs Portal">
    <mxGraphModel dx="1013" dy="882" grid="1" gridSize="10" guides="1" tooltips="1" connect="1" arrows="1" fold="1" page="1" pageScale="1" pageWidth="850" pageHeight="1100" math="0" shadow="0">
      <root>
        <mxCell id="0" />
        <mxCell id="1" parent="0" />
        <mxCell id="SW1_3JVglDq4V3xxYtGE-11" style="edgeStyle=orthogonalEdgeStyle;rounded=0;orthogonalLoop=1;jettySize=auto;html=1;entryX=0.5;entryY=0;entryDx=0;entryDy=0;" edge="1" parent="1" source="SW1_3JVglDq4V3xxYtGE-1" target="SW1_3JVglDq4V3xxYtGE-3">
          <mxGeometry relative="1" as="geometry" />
        </mxCell>
        <mxCell id="SW1_3JVglDq4V3xxYtGE-1" value="BMO" style="rounded=0;whiteSpace=wrap;html=1;fillColor=#d5e8d4;strokeColor=#82b366;" vertex="1" parent="1">
          <mxGeometry x="100" y="230" width="120" height="60" as="geometry" />
        </mxCell>
        <mxCell id="SW1_3JVglDq4V3xxYtGE-12" style="edgeStyle=orthogonalEdgeStyle;rounded=0;orthogonalLoop=1;jettySize=auto;html=1;entryX=0.5;entryY=1;entryDx=0;entryDy=0;" edge="1" parent="1" source="SW1_3JVglDq4V3xxYtGE-2" target="SW1_3JVglDq4V3xxYtGE-3">
          <mxGeometry relative="1" as="geometry" />
        </mxCell>
        <mxCell id="SW1_3JVglDq4V3xxYtGE-2" value="Canada Guaranty" style="rounded=0;whiteSpace=wrap;html=1;" vertex="1" parent="1">
          <mxGeometry x="100" y="330" width="120" height="60" as="geometry" />
        </mxCell>
        <mxCell id="SW1_3JVglDq4V3xxYtGE-13" style="edgeStyle=orthogonalEdgeStyle;rounded=0;orthogonalLoop=1;jettySize=auto;html=1;entryX=0;entryY=0.5;entryDx=0;entryDy=0;" edge="1" parent="1" source="SW1_3JVglDq4V3xxYtGE-3" target="SW1_3JVglDq4V3xxYtGE-4">
          <mxGeometry relative="1" as="geometry" />
        </mxCell>
        <mxCell id="SW1_3JVglDq4V3xxYtGE-3" value="HUB (Integration Layer)" style="rounded=0;whiteSpace=wrap;html=1;" vertex="1" parent="1">
          <mxGeometry x="330" y="280" width="120" height="60" as="geometry" />
        </mxCell>
        <mxCell id="SW1_3JVglDq4V3xxYtGE-4" value="NAS Portal" style="rounded=0;whiteSpace=wrap;html=1;" vertex="1" parent="1">
          <mxGeometry x="580" y="280" width="120" height="60" as="geometry" />
        </mxCell>
        <mxCell id="SW1_3JVglDq4V3xxYtGE-5" value="System to System Integration" style="text;html=1;strokeColor=none;fillColor=none;align=center;verticalAlign=middle;whiteSpace=wrap;rounded=0;fontStyle=1" vertex="1" parent="1">
          <mxGeometry x="305" y="150" width="190" height="30" as="geometry" />
        </mxCell>
        <mxCell id="SW1_3JVglDq4V3xxYtGE-6" value="NAS Portal" style="rounded=0;whiteSpace=wrap;html=1;" vertex="1" parent="1">
          <mxGeometry x="580" y="570" width="120" height="60" as="geometry" />
        </mxCell>
        <mxCell id="SW1_3JVglDq4V3xxYtGE-9" style="edgeStyle=orthogonalEdgeStyle;rounded=0;orthogonalLoop=1;jettySize=auto;html=1;" edge="1" parent="1" source="SW1_3JVglDq4V3xxYtGE-7" target="SW1_3JVglDq4V3xxYtGE-6">
          <mxGeometry relative="1" as="geometry" />
        </mxCell>
        <mxCell id="SW1_3JVglDq4V3xxYtGE-7" value="BMO&amp;nbsp; User&lt;br&gt;" style="sketch=0;html=1;dashed=0;whitespace=wrap;fillColor=#2875E2;strokeColor=#ffffff;points=[[0.005,0.63,0],[0.1,0.2,0],[0.9,0.2,0],[0.5,0,0],[0.995,0.63,0],[0.72,0.99,0],[0.5,1,0],[0.28,0.99,0]];shape=mxgraph.kubernetes.icon;prIcon=user;labelPosition=center;verticalLabelPosition=bottom;align=center;verticalAlign=top;" vertex="1" parent="1">
          <mxGeometry x="140" y="576" width="50" height="48" as="geometry" />
        </mxCell>
        <mxCell id="SW1_3JVglDq4V3xxYtGE-10" style="edgeStyle=orthogonalEdgeStyle;rounded=0;orthogonalLoop=1;jettySize=auto;html=1;entryX=0.25;entryY=1;entryDx=0;entryDy=0;" edge="1" parent="1" source="SW1_3JVglDq4V3xxYtGE-8" target="SW1_3JVglDq4V3xxYtGE-6">
          <mxGeometry relative="1" as="geometry" />
        </mxCell>
        <mxCell id="SW1_3JVglDq4V3xxYtGE-8" value="Canada Guranty User" style="sketch=0;html=1;dashed=0;whitespace=wrap;fillColor=#2875E2;strokeColor=#ffffff;points=[[0.005,0.63,0],[0.1,0.2,0],[0.9,0.2,0],[0.5,0,0],[0.995,0.63,0],[0.72,0.99,0],[0.5,1,0],[0.28,0.99,0]];shape=mxgraph.kubernetes.icon;prIcon=user;labelPosition=center;verticalLabelPosition=bottom;align=center;verticalAlign=top;" vertex="1" parent="1">
          <mxGeometry x="135" y="670" width="50" height="48" as="geometry" />
        </mxCell>
        <mxCell id="SW1_3JVglDq4V3xxYtGE-15" value="Portal User" style="text;html=1;strokeColor=none;fillColor=none;align=center;verticalAlign=middle;whiteSpace=wrap;rounded=0;fontStyle=1" vertex="1" parent="1">
          <mxGeometry x="350" y="520" width="100" height="30" as="geometry" />
        </mxCell>
        <mxCell id="SW1_3JVglDq4V3xxYtGE-16" value="" style="endArrow=none;html=1;rounded=0;" edge="1" parent="1">
          <mxGeometry width="50" height="50" relative="1" as="geometry">
            <mxPoint y="440" as="sourcePoint" />
            <mxPoint x="850" y="440" as="targetPoint" />
          </mxGeometry>
        </mxCell>
      </root>
    </mxGraphModel>
  </diagram>
</mxfile>
